<svg width="1000" height="185" viewBox="0 0 1000 185" fill="none" xmlns="http://www.w3.org/2000/svg" transform="translate(15, 0)">
<path d="M0.150391 7.07031H96.4395V40.2734H81.498V33.6328C81.498 32.277 81.3735 30.8797 81.1245 29.4409C80.9032 28.0021 80.5435 26.5771 80.0454 25.166C79.575 23.7549 78.8833 22.6066 77.9702 21.7212C77.0571 20.8081 76.0195 20.3516 74.8574 20.3516H61.5762V96.7188H74.8574V110H21.7324V96.7188H35.0137V20.3516H21.7324C20.5703 20.3516 19.5327 20.8081 18.6196 21.7212C17.7065 22.6066 17.001 23.7549 16.5029 25.166C16.0326 26.5771 15.6729 28.0021 15.4238 29.4409C15.2025 30.8797 15.0918 32.277 15.0918 33.6328V40.2734H0.150391V7.07031ZM122.379 35.0854C127.249 33.1763 132.41 32.2217 137.86 32.2217C143.311 32.2217 148.458 33.1763 153.3 35.0854C158.17 36.9946 162.403 39.6647 166 43.0957C169.597 46.499 172.433 50.7048 174.508 55.7129C176.611 60.721 177.663 66.1719 177.663 72.0654C177.663 77.959 176.611 83.4098 174.508 88.418C172.433 93.4261 169.597 97.6457 166 101.077C162.403 104.48 158.17 107.136 153.3 109.045C148.458 110.955 143.311 111.909 137.86 111.909C132.41 111.909 127.249 110.955 122.379 109.045C117.537 107.136 113.318 104.48 109.721 101.077C106.151 97.6457 103.315 93.4261 101.212 88.418C99.1372 83.4098 98.0996 77.959 98.0996 72.0654C98.0996 66.1719 99.1372 60.721 101.212 55.7129C103.315 50.7048 106.151 46.499 109.721 43.0957C113.318 39.6647 117.537 36.9946 122.379 35.0854ZM137.86 45.5029C135.924 45.5029 134.194 45.7796 132.672 46.333C131.151 46.8864 129.753 47.7995 128.48 49.0723C127.208 50.3451 126.156 51.9914 125.326 54.0112C124.524 56.0311 123.887 58.549 123.417 61.5649C122.974 64.5809 122.753 68.0811 122.753 72.0654C122.753 76.0498 122.974 79.55 123.417 82.5659C123.887 85.5819 124.524 88.0998 125.326 90.1196C126.156 92.1395 127.208 93.7858 128.48 95.0586C129.753 96.3314 131.151 97.2445 132.672 97.7979C134.194 98.3512 135.924 98.6279 137.86 98.6279C140.295 98.6279 142.412 98.1714 144.21 97.2583C146.009 96.3175 147.572 94.8234 148.9 92.7759C150.256 90.7284 151.266 87.9753 151.93 84.5166C152.622 81.0579 152.968 76.9076 152.968 72.0654C152.968 67.2233 152.622 63.0729 151.93 59.6143C151.266 56.1556 150.256 53.4025 148.9 51.355C147.572 49.3075 146.009 47.8271 144.21 46.9141C142.412 45.9733 140.295 45.5029 137.86 45.5029ZM228.256 46.9141V33.6328H268.1V46.9141H257.226L240.749 65.0098L262.953 96.7188H269.76V110H229.916V96.7188H235.229L216.635 70.1562L237.802 46.9141H228.256ZM181.771 7.07031H213.314V96.7188H221.615V110H181.771V96.7188H190.072V20.3516H181.771V7.07031ZM301.51 35.0854C306.38 33.1763 311.54 32.2217 316.991 32.2217C322.442 32.2217 327.589 33.1763 332.431 35.0854C337.3 36.9946 341.534 39.6647 345.131 43.0957C348.728 46.499 351.564 50.7048 353.639 55.7129C355.742 60.721 356.793 66.1719 356.793 72.0654C356.793 77.959 355.742 83.4098 353.639 88.418C351.564 93.4261 348.728 97.6457 345.131 101.077C341.534 104.48 337.3 107.136 332.431 109.045C327.589 110.955 322.442 111.909 316.991 111.909C311.54 111.909 306.38 110.955 301.51 109.045C296.668 107.136 292.449 104.48 288.852 101.077C285.282 97.6457 282.446 93.4261 280.343 88.418C278.268 83.4098 277.23 77.959 277.23 72.0654C277.23 66.1719 278.268 60.721 280.343 55.7129C282.446 50.7048 285.282 46.499 288.852 43.0957C292.449 39.6647 296.668 36.9946 301.51 35.0854ZM316.991 45.5029C315.054 45.5029 313.325 45.7796 311.803 46.333C310.281 46.8864 308.884 47.7995 307.611 49.0723C306.339 50.3451 305.287 51.9914 304.457 54.0112C303.655 56.0311 303.018 58.549 302.548 61.5649C302.105 64.5809 301.884 68.0811 301.884 72.0654C301.884 76.0498 302.105 79.55 302.548 82.5659C303.018 85.5819 303.655 88.0998 304.457 90.1196C305.287 92.1395 306.339 93.7858 307.611 95.0586C308.884 96.3314 310.281 97.2445 311.803 97.7979C313.325 98.3512 315.054 98.6279 316.991 98.6279C319.426 98.6279 321.543 98.1714 323.341 97.2583C325.14 96.3175 326.703 94.8234 328.031 92.7759C329.387 90.7284 330.397 87.9753 331.061 84.5166C331.753 81.0579 332.099 76.9076 332.099 72.0654C332.099 67.2233 331.753 63.0729 331.061 59.6143C330.397 56.1556 329.387 53.4025 328.031 51.355C326.703 49.3075 325.14 47.8271 323.341 46.9141C321.543 45.9733 319.426 45.5029 316.991 45.5029ZM364.223 76.7969V63.5156H409.047V76.7969H364.223ZM399.086 7.07031H495.375V40.2734H480.434V33.6328C480.434 32.277 480.309 30.8797 480.06 29.4409C479.839 28.0021 479.479 26.5771 478.981 25.166C478.511 23.7549 477.819 22.6066 476.906 21.7212C475.993 20.8081 474.955 20.3516 473.793 20.3516H460.512V96.7188H473.793V110H420.668V96.7188H433.949V20.3516H420.668C419.506 20.3516 418.468 20.8081 417.555 21.7212C416.642 22.6066 415.937 23.7549 415.438 25.166C414.968 26.5771 414.608 28.0021 414.359 29.4409C414.138 30.8797 414.027 32.277 414.027 33.6328V40.2734H399.086V7.07031ZM557.631 31.9727C561.505 31.9727 564.894 32.4984 567.799 33.5498C570.705 34.6012 573.084 36.0539 574.938 37.9077C576.792 39.7339 578.286 42.0719 579.42 44.9219C580.583 47.7441 581.385 50.7878 581.828 54.0527C582.298 57.29 582.533 60.9977 582.533 65.1758V96.7188H590.834V110H550.99V96.7188H559.291V63.5156C559.291 59.1439 558.89 55.7406 558.087 53.3057C557.313 50.8708 556.178 49.1968 554.684 48.2837C553.218 47.3706 551.212 46.9141 548.666 46.9141C546.314 46.9141 543.893 47.924 541.403 49.9438C538.94 51.9637 536.602 54.786 534.389 58.4106V96.7188H542.689V110H502.846V96.7188H511.146V20.3516H502.846V7.07031H534.389V44.9634C535.385 43.1095 536.561 41.4355 537.917 39.9414C539.272 38.4473 540.877 37.0915 542.731 35.874C544.585 34.6289 546.771 33.6743 549.289 33.0103C551.834 32.3185 554.615 31.9727 557.631 31.9727ZM597.475 33.6328H623.249L628.478 43.7183C633.375 35.8879 640.307 31.9727 649.271 31.9727C655.276 31.9727 660.035 33.8265 663.549 37.5342C667.09 41.2142 668.861 46.001 668.861 51.8945C668.861 55.5745 667.561 58.715 664.96 61.3159C662.387 63.8892 659.26 65.1758 655.58 65.1758C651.9 65.1758 648.76 63.8892 646.159 61.3159C643.585 58.715 642.299 55.5745 642.299 51.8945C642.299 50.4004 642.534 48.9616 643.004 47.5781C642.257 47.1354 641.469 46.9141 640.639 46.9141C638.785 46.9141 636.862 48.1315 634.87 50.5664C632.905 52.9736 631.01 56.5845 629.184 61.3989L629.018 96.7188H647.279V110H597.475V96.7188H605.775V46.9141H597.475V33.6328ZM681.022 24.7925C678.449 22.1916 677.162 19.0511 677.162 15.3711C677.162 11.6911 678.449 8.56445 681.022 5.99121C683.623 3.3903 686.763 2.08984 690.443 2.08984C694.123 2.08984 697.25 3.3903 699.823 5.99121C702.424 8.56445 703.725 11.6911 703.725 15.3711C703.725 19.0511 702.424 22.1916 699.823 24.7925C697.25 27.3657 694.123 28.6523 690.443 28.6523C686.763 28.6523 683.623 27.3657 681.022 24.7925ZM670.521 33.6328H702.064V96.7188H710.365V110H670.521V96.7188H678.822V46.9141H670.521V33.6328ZM717.006 46.9141V33.6328H728.627C728.627 23.2292 731.588 15.0944 737.509 9.22852C743.43 3.36263 752.09 0.429688 763.49 0.429688C767.751 0.429688 771.362 0.803223 774.323 1.55029C777.283 2.26969 779.538 3.21045 781.088 4.37256C782.637 5.53467 783.924 6.9873 784.948 8.73047C786.138 10.7227 786.732 12.9362 786.732 15.3711C786.732 19.0511 785.432 22.1916 782.831 24.7925C780.258 27.3657 777.131 28.6523 773.451 28.6523C769.771 28.6523 766.631 27.3657 764.03 24.7925C761.457 22.1916 760.17 19.0511 760.17 15.3711C760.17 14.8177 760.198 14.2643 760.253 13.7109C760.225 13.7109 760.198 13.7109 760.17 13.7109C757.292 13.7109 755.189 15.3434 753.861 18.6084C752.533 21.8734 751.869 26.8815 751.869 33.6328H776.771V46.9141H751.869V96.7188H770.131V110H720.326V96.7188H728.627V46.9141H717.006ZM808.314 17.0312H816.615V33.6328H839.857V46.9141H816.615V90.0781C816.615 91.9596 817.141 93.5368 818.192 94.8096C819.271 96.0824 820.959 96.7188 823.256 96.7188C825.829 96.7188 828.015 95.8748 829.813 94.187C831.612 92.4715 832.746 89.9951 833.217 86.7578L843.178 88.418C842.763 91.6553 841.96 94.6574 840.771 97.4243C839.608 100.164 838.087 102.612 836.205 104.771C834.324 106.901 831.986 108.589 829.191 109.834C826.424 111.051 823.339 111.66 819.936 111.66C811.662 111.66 805.16 109.737 800.429 105.891C795.725 102.017 793.373 96.7464 793.373 90.0781V46.9141H785.072V33.6328H786.732C790.993 33.6328 794.757 32.4154 798.021 29.9805C801.286 27.5456 804.717 23.2292 808.314 17.0312Z" fill="white"/>
</svg>
